<?xml version="1.0" encoding="utf-8"?>
<!-- Generator: Adobe Illustrator 24.0.2, SVG Export Plug-In . SVG Version: 6.00 Build 0)  -->
<svg version="1.1" id="SvgjsSvg1001" xmlns:svgjs="http://svgjs.com/svgjs"
	 xmlns="http://www.w3.org/2000/svg" xmlns:xlink="http://www.w3.org/1999/xlink" x="0px" y="0px" viewBox="0 0 288 288"
	 style="enable-background:new 0 0 288 288;" xml:space="preserve">
<style type="text/css">
	.st0{fill:#FFFFFF;stroke:#FFFFFF;stroke-width:2;stroke-miterlimit:10;}
	.st1{fill:#FFFFFF;stroke:#FFFFFF;stroke-width:5;stroke-miterlimit:10;}
</style>
<path class="st0" d="M144,276c35.3,0,68.4-13.7,93.3-38.7c24.9-24.9,38.7-58.1,38.7-93.3s-13.7-68.4-38.7-93.3
	C212.4,25.7,179.3,12,144,12S75.6,25.7,50.7,50.7C25.7,75.6,12,108.7,12,144s13.7,68.4,38.7,93.3C75.6,262.3,108.7,276,144,276z
	 M62.3,62.3c21.8-21.8,50.8-33.8,81.7-33.8s59.9,12,81.7,33.8c21.8,21.8,33.8,50.8,33.8,81.7s-12,59.9-33.8,81.7
	c-21.8,21.8-50.8,33.8-81.7,33.8s-59.9-12-81.7-33.8c-21.8-21.8-33.8-50.8-33.8-81.7S40.5,84.1,62.3,62.3z"/>
<path class="st1" d="M120.5,194h0.2c1.8,0,3.5-0.7,4.8-2l83.3-86.7c2.6-2.7,2.5-6.9-0.2-9.4s-6.9-2.5-9.4,0.2L121,177.4l-31.9-37.7
	c-2.4-2.8-6.6-3.2-9.4-0.8s-3.2,6.6-0.8,9.4l0,0l36.7,43.3C116.8,193.1,118.6,194,120.5,194z"/>
</svg>
