<svg id="SvgjsSvg1001" width="288" height="288" xmlns="http://www.w3.org/2000/svg" version="1.1" xmlns:xlink="http://www.w3.org/1999/xlink" xmlns:svgjs="http://svgjs.com/svgjs"><defs id="SvgjsDefs1002"></defs><g id="SvgjsG1008" transform="matrix(0.9167,0,0,0.9167,12.744900000000001,12.744900000000001)"><svg xmlns="http://www.w3.org/2000/svg" width="288" height="288" viewBox="0 0 32 32"><path d="M17 2C8.716 2 2 8.716 2 17s6.716 15 15 15 15-6.716 15-15S25.284 2 17 2zm0 28C9.832 30 4 24.168 4 17S9.832 4 17 4s13 5.832 13 13-5.832 13-13 13zm5.536-19.95l-5.498 5.498-4.93-5.498a1 1 0 0 0-1.414 1.414l4.932 5.498-5.574 5.574a1 1 0 0 0 1.414 1.414l5.498-5.498 4.932 5.498a1 1 0 0 0 1.414-1.414l-4.934-5.498 5.574-5.574a1 1 0 0 0-1.414-1.414z" fill="#ffffff" class="color000 svgShape"></path></svg></g></svg>