<?xml version="1.0" encoding="utf-8"?>
<!-- Generator: Adobe Illustrator 24.0.2, SVG Export Plug-In . SVG Version: 6.00 Build 0)  -->
<svg version="1.1" id="Capa_1" xmlns="http://www.w3.org/2000/svg" xmlns:xlink="http://www.w3.org/1999/xlink" x="0px" y="0px"
	 viewBox="0 0 48 48" style="enable-background:new 0 0 48 48;" xml:space="preserve">
<style type="text/css">
	.st0{fill:#262626;}
</style>
<path class="st0" d="M12.2,3.8C11.5,4.5,11,8,11,12.5c0,9.4,2,13.9,7.3,16.4c3.6,1.8,3.7,2,3.7,7.2v5.3l-4,0.7c-2.5,0.4-4,1.2-4,2.1
	c0,1.2,1.8,1.4,9.7,1.2c10.3-0.3,13.7-2.1,6.4-3.3L26,41.4v-5.3c0-5.2,0.1-5.4,3.8-7.2c5.2-2.5,7.2-7,7.2-16.4c0-4.5-0.5-8-1.2-8.7
	C34.2,2.2,13.8,2.2,12.2,3.8z M34,8.1c0,2.4-0.1,4.3-8.1,4.6l-8.4,0.1l0.1,2.8c0.1,2.5,0.5,5.5,0.9,6.7c0.5,1.7,0.3,2.3-0.7,2.3
	c-2.4,0-3.8-4.6-3.8-12v-7h10C34,5.6,34,5.6,34,8.1z"/>
<path class="st0" d="M12.2,3.7C11.5,4.4,11,7.9,11,12.4c0,9.4,2,13.9,7.2,16.4c3.7,1.8,3.8,2,3.8,7.2v5.3L17.9,42
	c-7.3,1.2-3.9,3,6.4,3.3c7.9,0.2,9.7,0,9.7-1.2c0-0.9-1.5-1.7-4-2.1l-4-0.7V36c0-5.2,0.1-5.4,3.7-7.2c5.3-2.5,7.3-7,7.3-16.4
	c0-4.5-0.5-8-1.2-8.7C34.2,2.1,13.8,2.1,12.2,3.7z M24,5.5h10v7c0,7.4-1.4,12-3.8,12c-1,0-1.2-0.6-0.7-2.3c0.4-1.2,0.8-4.2,0.9-6.7
	l0.1-2.8l-8.4-0.1c-8-0.3-8.1-2.2-8.1-4.6C14,5.5,14,5.5,24,5.5z"/>
</svg>
