<svg xmlns="http://www.w3.org/2000/svg" viewBox="0 0 32 32"><defs><linearGradient id="a" x1="2.01" x2="29.99" y1="16" y2="16" gradientUnits="userSpaceOnUse"><stop offset="0" stop-color="#12c2e9"/><stop offset="1" stop-color="#c471ed"/></linearGradient></defs><path fill="url(#a)" d="M29.67 19.23L30 17l-3.08-1.54a10.61 10.61 0 00-.26-1.78l2.52-2.33-.93-2-3.42.37a11.74 11.74 0 00-1.18-1.36L24.5 5l-1.9-1.23-2.67 2.16a10.16 10.16 0 00-1.73-.52l-1.07-3.25h-2.26L13.8 5.41a10.16 10.16 0 00-1.73.52L9.4 3.77 7.5 5l.86 3.33a11.74 11.74 0 00-1.18 1.34L3.76 9.3l-.93 2 2.52 2.33a10.61 10.61 0 00-.26 1.78L2 17l.32 2.23 3.39.6a10.58 10.58 0 00.75 1.64l-1.76 3 1.47 1.7 3.19-1.37a11.47 11.47 0 001.51 1l.13 3.41 2.17.63L15.1 27h1.8l2 2.82 2.1-.61.11-3.43a11.47 11.47 0 001.51-1l3.18 1.32 1.47-1.7-1.76-3a10.58 10.58 0 00.75-1.64zm-2.84-1.57h.06-.06zm-21.72 0h.06zM6 11.6h.07zm16-4.73v.06zm-6-1.75v.07zm-5.9 1.79v-.06zM7.69 23.33v-.06zm5.21 3.35v-.06zm6.2 0v-.05zm5.15-3.38v.06zM16 25.06a8.94 8.94 0 118.94-8.94A8.95 8.95 0 0116 25.06zM26 11.6zm-5-1.41l-.35.27a7.1 7.1 0 00-3.12-1.56v-.42h-3v.4a7.16 7.16 0 00-3.17 1.53l-.36-.27-1.82 2.32.37.29a7.11 7.11 0 00-.76 3.19v.19l-.51.12.72 2.9.5-.15a7.16 7.16 0 002.12 2.63l-.26.55L14 23.49l.27-.56a6.83 6.83 0 001.7.21 7.45 7.45 0 001.68-.14l.27.57 2.68-1.29-.26-.55a7.32 7.32 0 002.14-2.6l.57.13.66-2.9-.52-.12a2.11 2.11 0 000-.25 7.22 7.22 0 00-.72-3.12l.38-.31zM9.54 15.94a6.33 6.33 0 01.61-2.71l2.52 2-3.12.77zM12 21a6.47 6.47 0 01-1.7-2.11l3.06-.7zm0-10.07a6.47 6.47 0 012.57-1.24v3.29zm4 11.5a6.1 6.1 0 01-1.36-.15L16 19.47l1.34 2.79a6.26 6.26 0 01-1.34.13zm0-4.69A1.7 1.7 0 1117.7 16a1.7 1.7 0 01-1.7 1.7zM17.53 13V9.67a6.45 6.45 0 012.55 1.27zM20 21l-1.34-2.78 3.07.7A6.57 6.57 0 0120 21zm2.45-5l-3.09-.7 2.53-2a6.48 6.48 0 01.57 2.64l-.01.06z" data-name="Gear"/></svg>