<svg xmlns="http://www.w3.org/2000/svg" viewBox="0 0 24 24"><path fill="#333" d="M21 4.5l-1-1c-.128-.128-2.356-2.5-8-2.5-2.188 0-3.626.706-4 1-.86.156-5 1.171-5 6 0 1.529.977 5.875 1 6h.5c0-.71.765-4.285 1.972-5.35.632-.56 1.463-.78 2.466-.654l.16.02.141-.077c2.44-1.331 4.993-1.41 7.006-.214C17.97 8.749 19 10.534 19 12.5v2.118l.947-1.894c.023-.046.553-1.136.553-3.724 0-1.92-.2-2.902-.39-3.403L21 4.5z"/><path opacity=".2" fill="#FFF" d="M8 2.25c.374-.294 1.812-1 4-1 5.644 0 7.872 2.372 8 2.5l.888.888L21 4.5l-1-1c-.128-.128-2.356-2.5-8-2.5-2.188 0-3.626.706-4 1-.86.156-5 1.171-5 6 0 .046.004.102.005.153C3.063 3.41 7.145 2.405 8 2.25z"/><path fill="#FCD3C0" d="M19.892 12.835a1.901 1.901 0 00-.375-.317H19V12.5c0-1.966-1.03-3.751-2.755-4.775-2.013-1.195-4.565-1.117-7.006.214l-.141.077-.16-.02c-1.003-.126-1.834.095-2.466.654-.805.71-1.412 2.534-1.728 3.883H4.46c-.143.093-.258.2-.362.314-.518.562-.598 1.33-.598 1.919 0 .927.839 3.006 2.03 3.343l.038.096C6.082 19.516 7.449 23 12 23s5.918-3.484 6.432-4.795l.038-.096c1.191-.337 2.03-2.416 2.03-3.343 0-.593-.081-1.368-.608-1.931z"/><path opacity=".1" fill="#010101" d="M18.47 17.86l-.038.095c-.514 1.311-1.881 4.795-6.432 4.795s-5.918-3.484-6.432-4.795a8.662 8.662 0 00-.038-.096c-1.173-.332-2-2.35-2.025-3.296a4.738 4.738 0 00-.005.203c0 .927.839 3.006 2.03 3.343l.038.096C6.082 19.516 7.449 23 12 23s5.918-3.484 6.432-4.795l.038-.096c1.191-.337 2.03-2.416 2.03-3.343 0-.065-.002-.134-.005-.203-.024.947-.852 2.964-2.025 3.296z"/><path fill="#333" d="M18.814 10.489c.46 1.58-.07 3.612-.07 3.612.391-.525.533-.648.875-1.893M5.186 10.489c-.46 1.58.07 3.612.07 3.612-.391-.525-.533-.648-.875-1.893M8.5 14c-.551 0-1-.449-1-1s.449-1 1-1 1 .449 1 1-.449 1-1 1zM15.5 14c-.551 0-1-.449-1-1s.449-1 1-1 1 .449 1 1-.449 1-1 1z"/><linearGradient id="a" gradientUnits="userSpaceOnUse" x1="2.648" y1="7.208" x2="20.471" y2="15.519"><stop offset="0" stop-color="#FFF" stop-opacity=".2"/><stop offset="1" stop-color="#FFF" stop-opacity="0"/></linearGradient><path fill="url(#a)" d="M20.5 9c0-1.92-.2-2.902-.39-3.403L21 4.5l-1-1c-.128-.128-2.356-2.5-8-2.5-2.188 0-3.626.706-4 1-.86.156-5 1.171-5 6 0 1.148.55 3.885.835 5.23-.276.498-.335 1.071-.335 1.536 0 .927.839 3.006 2.03 3.343l.038.096C6.082 19.516 7.449 23 12 23s5.918-3.484 6.432-4.795l.038-.096c1.191-.337 2.03-2.416 2.03-3.343 0-.593-.081-1.368-.608-1.931l.055-.111c.023-.046.553-1.136.553-3.724z"/></svg>