<svg id="SvgjsSvg1001" width="288" height="288" xmlns="http://www.w3.org/2000/svg" version="1.1" xmlns:xlink="http://www.w3.org/1999/xlink" xmlns:svgjs="http://svgjs.com/svgjs"><defs id="SvgjsDefs1002"></defs><g id="SvgjsG1008" transform="matrix(1,0,0,1,0,0)"><svg xmlns="http://www.w3.org/2000/svg" width="288" height="288" viewBox="0 0 25 25"><g fill="#ffffff" transform="translate(4.5 -1031.862)" class="colorfff svgShape"><circle cx="8" cy="1044.362" r="12.5" fill="#696c75" fill-rule="evenodd" class="color239fdb svgShape"></circle><path style="line-height:normal;text-indent:0;text-align:start;text-decoration-line:none;text-decoration-style:solid;text-decoration-color:#000;text-transform:none;block-progression:tb;isolation:auto;mix-blend-mode:normal" d="M 7,0 C 3.13993,0 0,3.14 0,7 c 0,3.8601 3.13993,7 7,7 1.7503322,0 3.347588,-0.651187 4.576172,-1.716797 l 3.566406,3.566406 a 0.50004997,0.50004997 0 1 0 0.707031,-0.707031 L 12.283203,11.576172 C 13.348817,10.34759 14,8.7503458 14,7 14,3.14 10.86007,0 7,0 Z m 0,1 c 3.31963,0 6,2.6804 6,6 0,3.3197 -2.68037,6 -6,6 C 3.68037,13 1,10.3197 1,7 1,3.6804 3.68037,1 7,1 Z" color="#000" font-family="sans-serif" font-weight="400" overflow="visible" transform="translate(.5 1036.862)" fill="#ffffff" class="color000 svgShape"></path></g></svg></g></svg>