<svg xmlns="http://www.w3.org/2000/svg" viewBox="0 0 24 24"><path fill="#5D4B3F" d="M23.243 19.321C21.828 16.59 21 14.58 21 11c0-4.033-2.86-10-9-10h-.207l-.502.502C5.847 1.62 3 6.338 3 11c0 3.58-1.022 5.554-2.437 8.286L0 20.762l.51.202c.08.033 1.849.787 8.253.987h6.489c6.39-.2 8.158-.919 8.239-.951l.509-.203-.757-1.476z"/><path opacity=".1" fill="#010101" d="M23.49 20.75c-.08.032-1.849.751-8.238.95l-.007.001H8.763c-6.404-.2-8.173-.954-8.254-.987l-.402-.16-.107.208.51.202c.08.033 1.849.787 8.253.987h6.489c6.39-.2 8.158-.919 8.239-.951l.509-.203-.107-.207-.402.16z"/><path fill="#FCD3C0" d="M19.059 12.714c-1.667-.375-4.487-2.4-5.226-5.13-2.036 2.618-7.04 4.713-8.892 5.13C4.167 12.89 4 13.721 4 14.771c0 .9.95 3.086 2 3.086.41.876 2.253 5.143 6 5.143s5.59-4.267 6-5.143c1.05 0 2-2.186 2-3.086 0-1.05-.167-1.882-.941-2.057z"/><path opacity=".1" fill="#010101" d="M18 17.607c-.41.876-2.253 5.143-6 5.143s-5.59-4.267-6-5.143c-1.036 0-1.97-2.121-1.995-3.043-.002.07-.005.136-.005.207 0 .9.95 3.086 2 3.086.41.876 2.253 5.143 6 5.143s5.59-4.267 6-5.143c1.05 0 2-2.186 2-3.086 0-.07-.003-.138-.005-.207-.025.922-.96 3.043-1.995 3.043z"/><path opacity=".2" fill="#FFF" d="M3 11.25c0-4.662 2.847-9.38 8.29-9.498l.503-.502H12c6.14 0 9 5.967 9 10V11c0-4.033-2.86-10-9-10h-.207l-.502.502C5.847 1.62 3 6.338 3 11v.25z"/><path fill="#333" d="M8.5 13h-1a.5.5 0 100 1c0 .551.449 1 1 1s1-.449 1-1-.449-1-1-1zM14.5 14c0 .551.449 1 1 1s1-.449 1-1a.5.5 0 100-1h-1c-.551 0-1 .449-1 1z"/><path opacity=".1" fill="#010101" d="M23.243 19.321C21.828 16.59 21 14.58 21 11c0-2.948-1.536-6.919-4.755-8.848-.245 2.723-1.72 4.485-2.412 5.431.74 2.73 3.56 4.756 5.226 5.131.774.175.941 1.007.941 2.057 0 .9-.95 3.086-2 3.086-.28.597-1.228 2.772-2.99 4.094h.242c6.39-.2 8.158-.919 8.239-.951l.509-.203-.757-1.476z"/><linearGradient id="a" gradientUnits="userSpaceOnUse" x1="2.795" y1="8.943" x2="24.753" y2="19.182"><stop offset="0" stop-color="#FFF" stop-opacity=".2"/><stop offset="1" stop-color="#FFF" stop-opacity="0"/></linearGradient><path fill="url(#a)" d="M23.243 19.321C21.828 16.59 21 14.58 21 11c0-4.033-2.86-10-9-10h-.207l-.502.502C5.847 1.62 3 6.338 3 11c0 3.58-1.022 5.554-2.437 8.286L0 20.762l.51.202c.08.033 1.849.787 8.253.987h.228C9.812 22.567 10.809 23 12 23s2.188-.433 3.01-1.049h.242c6.39-.2 8.158-.919 8.239-.951l.509-.203-.757-1.476z"/></svg>